<svg xmlns="http://www.w3.org/2000/svg" width="256" height="256" viewBox="0 0 100 100"><rect width="100" height="100" rx="50" fill="#6967f2"></rect><path d="M51.20 49.97L51.20 49.97Q51.20 54.65 49.79 58.25Q48.38 61.85 45.86 64.28Q43.34 66.71 39.92 67.97Q36.50 69.23 32.48 69.23L32.48 69.23Q28.46 69.23 25.04 67.97Q21.62 66.71 19.13 64.28Q16.64 61.85 15.23 58.25Q13.82 54.65 13.82 49.97L13.82 49.97Q13.82 45.29 15.26 41.72Q16.70 38.15 19.22 35.72Q21.74 33.29 25.13 32.03Q28.52 30.77 32.48 30.77L32.48 30.77Q36.44 30.77 39.86 32.03Q43.28 33.29 45.80 35.72Q48.32 38.15 49.76 41.72Q51.20 45.29 51.20 49.97ZM41.48 49.97L41.48 49.97Q41.48 44.21 39.05 41.30Q36.62 38.39 32.48 38.39L32.48 38.39Q28.40 38.39 25.94 41.30Q23.48 44.21 23.48 49.97L23.48 49.97Q23.48 55.79 25.91 58.70Q28.34 61.61 32.48 61.61L32.48 61.61Q36.62 61.61 39.05 58.70Q41.48 55.79 41.48 49.97ZM86.18 53.75L86.18 53.75Q86.18 57.29 85.10 60.14Q84.02 62.99 82.01 64.97Q80 66.95 77.18 68.03Q74.36 69.11 70.88 69.11L70.88 69.11Q67.40 69.11 64.55 68.06Q61.70 67.01 59.69 65.03Q57.68 63.05 56.60 60.20Q55.52 57.35 55.52 53.75L55.52 53.75Q55.52 50.27 56.63 47.42Q57.74 44.57 59.75 42.59Q61.76 40.61 64.61 39.53Q67.46 38.45 70.88 38.45L70.88 38.45Q74.30 38.45 77.12 39.53Q79.94 40.61 81.95 42.62Q83.96 44.63 85.07 47.45Q86.18 50.27 86.18 53.75ZM70.88 45.65L70.88 45.65Q68.06 45.65 66.50 47.75Q64.94 49.85 64.94 53.75L64.94 53.75Q64.94 57.77 66.47 59.84Q68 61.91 70.88 61.91L70.88 61.91Q73.76 61.91 75.29 59.81Q76.82 57.71 76.82 53.75L76.82 53.75Q76.82 49.91 75.26 47.78Q73.70 45.65 70.88 45.65Z" fill="#fff"></path></svg>